<mxfile host="Electron" modified="2024-03-13T21:31:40.303Z" agent="Mozilla/5.0 (Windows NT 10.0; Win64; x64) AppleWebKit/537.36 (KHTML, like Gecko) draw.io/24.0.4 Chrome/120.0.6099.109 Electron/28.1.0 Safari/537.36" etag="n_arpdCRlXUZGThImFLt" version="24.0.4" type="device">
  <diagram name="Page-1" id="2YBvvXClWsGukQMizWep">
    <mxGraphModel dx="1430" dy="830" grid="1" gridSize="10" guides="1" tooltips="1" connect="1" arrows="0" fold="1" page="1" pageScale="1" pageWidth="850" pageHeight="1100" math="0" shadow="0">
      <root>
        <mxCell id="0" />
        <mxCell id="1" parent="0" />
        <mxCell id="7NyGLAVOeVpIGD8T9C1N-29" value="Cancel:&lt;br&gt;{flag: CAN, (block: duration)}" style="html=1;verticalAlign=bottom;endArrow=open;curved=0;rounded=0;endFill=0;endSize=8;fontSize=9;fontFamily=Lucida Console;labelBackgroundColor=none;" edge="1" parent="1" target="7NyGLAVOeVpIGD8T9C1N-19">
          <mxGeometry width="80" relative="1" as="geometry">
            <mxPoint x="560" y="460" as="sourcePoint" />
            <mxPoint x="370" y="460" as="targetPoint" />
            <Array as="points">
              <mxPoint x="425.07" y="460" />
            </Array>
          </mxGeometry>
        </mxCell>
        <mxCell id="aM9ryv3xv72pqoxQDRHE-1" value="Client 1" style="shape=umlLifeline;perimeter=lifelinePerimeter;whiteSpace=wrap;html=1;container=0;dropTarget=0;collapsible=0;recursiveResize=0;outlineConnect=0;portConstraint=eastwest;newEdgeStyle={&quot;edgeStyle&quot;:&quot;elbowEdgeStyle&quot;,&quot;elbow&quot;:&quot;vertical&quot;,&quot;curved&quot;:0,&quot;rounded&quot;:0};fontSize=9;fontFamily=Lucida Console;labelBackgroundColor=none;" parent="1" vertex="1">
          <mxGeometry x="310" y="40" width="100" height="740" as="geometry" />
        </mxCell>
        <mxCell id="G5y6H1Q0InbkYZ5HYuAN-53" value="get own publicKey" style="html=1;align=left;spacingLeft=2;endArrow=block;rounded=0;edgeStyle=orthogonalEdgeStyle;curved=0;rounded=0;fontFamily=Lucida Console;fontSize=9;fontColor=default;labelBackgroundColor=none;" parent="aM9ryv3xv72pqoxQDRHE-1" target="G5y6H1Q0InbkYZ5HYuAN-52" edge="1">
          <mxGeometry relative="1" as="geometry">
            <mxPoint x="55" y="100" as="sourcePoint" />
            <Array as="points">
              <mxPoint x="85" y="130" />
            </Array>
          </mxGeometry>
        </mxCell>
        <mxCell id="Qm1iwAKYmfylE49Ezy-k-1" value="" style="html=1;points=[[0,0,0,0,5],[0,1,0,0,-5],[1,0,0,0,5],[1,1,0,0,-5]];perimeter=orthogonalPerimeter;outlineConnect=0;targetShapes=umlLifeline;portConstraint=eastwest;newEdgeStyle={&quot;curved&quot;:0,&quot;rounded&quot;:0};fontSize=9;fontFamily=Lucida Console;labelBackgroundColor=none;" parent="aM9ryv3xv72pqoxQDRHE-1" vertex="1">
          <mxGeometry x="45" y="70" width="10" height="100" as="geometry" />
        </mxCell>
        <mxCell id="G5y6H1Q0InbkYZ5HYuAN-52" value="" style="html=1;points=[[0,0,0,0,5],[0,1,0,0,-5],[1,0,0,0,5],[1,1,0,0,-5]];perimeter=orthogonalPerimeter;outlineConnect=0;targetShapes=umlLifeline;portConstraint=eastwest;newEdgeStyle={&quot;curved&quot;:0,&quot;rounded&quot;:0};rounded=0;align=center;verticalAlign=middle;fontFamily=Lucida Console;fontSize=9;fontColor=default;fillColor=default;gradientColor=none;labelBackgroundColor=none;" parent="aM9ryv3xv72pqoxQDRHE-1" vertex="1">
          <mxGeometry x="50" y="120" width="10" height="20" as="geometry" />
        </mxCell>
        <mxCell id="aM9ryv3xv72pqoxQDRHE-5" value="Client 2" style="shape=umlLifeline;perimeter=lifelinePerimeter;whiteSpace=wrap;html=1;container=0;dropTarget=0;collapsible=0;recursiveResize=0;outlineConnect=0;portConstraint=eastwest;newEdgeStyle={&quot;edgeStyle&quot;:&quot;elbowEdgeStyle&quot;,&quot;elbow&quot;:&quot;vertical&quot;,&quot;curved&quot;:0,&quot;rounded&quot;:0};fontSize=9;fontFamily=Lucida Console;labelBackgroundColor=none;" parent="1" vertex="1">
          <mxGeometry x="510" y="40" width="100" height="740" as="geometry" />
        </mxCell>
        <mxCell id="7NyGLAVOeVpIGD8T9C1N-3" value="canceled" style="html=1;verticalAlign=bottom;endArrow=open;curved=0;rounded=0;endFill=0;endSize=8;fontSize=9;fontFamily=Lucida Console;labelBackgroundColor=none;" edge="1" parent="aM9ryv3xv72pqoxQDRHE-5">
          <mxGeometry width="80" relative="1" as="geometry">
            <mxPoint x="50" y="490" as="sourcePoint" />
            <mxPoint x="245" y="490" as="targetPoint" />
            <Array as="points">
              <mxPoint x="105" y="490" />
            </Array>
          </mxGeometry>
        </mxCell>
        <mxCell id="Qm1iwAKYmfylE49Ezy-k-26" value="" style="html=1;points=[[0,0,0,0,5],[0,1,0,0,-5],[1,0,0,0,5],[1,1,0,0,-5]];perimeter=orthogonalPerimeter;outlineConnect=0;targetShapes=umlLifeline;portConstraint=eastwest;newEdgeStyle={&quot;curved&quot;:0,&quot;rounded&quot;:0};fontFamily=Lucida Console;fontSize=9;fontColor=default;labelBackgroundColor=none;" parent="aM9ryv3xv72pqoxQDRHE-5" vertex="1">
          <mxGeometry x="45" y="150" width="10" height="350" as="geometry" />
        </mxCell>
        <mxCell id="7NyGLAVOeVpIGD8T9C1N-25" value="Check if blocked&lt;br&gt;in user data" style="html=1;align=left;spacingLeft=2;endArrow=block;rounded=0;edgeStyle=orthogonalEdgeStyle;curved=0;rounded=0;fontFamily=Lucida Console;fontSize=9;fontColor=default;labelBackgroundColor=none;" edge="1" parent="aM9ryv3xv72pqoxQDRHE-5" target="7NyGLAVOeVpIGD8T9C1N-26">
          <mxGeometry relative="1" as="geometry">
            <mxPoint x="55" y="180" as="sourcePoint" />
            <Array as="points">
              <mxPoint x="85" y="210" />
            </Array>
          </mxGeometry>
        </mxCell>
        <mxCell id="7NyGLAVOeVpIGD8T9C1N-26" value="" style="html=1;points=[[0,0,0,0,5],[0,1,0,0,-5],[1,0,0,0,5],[1,1,0,0,-5]];perimeter=orthogonalPerimeter;outlineConnect=0;targetShapes=umlLifeline;portConstraint=eastwest;newEdgeStyle={&quot;curved&quot;:0,&quot;rounded&quot;:0};rounded=0;align=center;verticalAlign=middle;fontFamily=Lucida Console;fontSize=9;fontColor=default;fillColor=default;gradientColor=none;labelBackgroundColor=none;" vertex="1" parent="aM9ryv3xv72pqoxQDRHE-5">
          <mxGeometry x="50" y="200" width="10" height="140" as="geometry" />
        </mxCell>
        <mxCell id="7NyGLAVOeVpIGD8T9C1N-17" value="disagree (&amp;amp; block for duration)" style="html=1;verticalAlign=bottom;endArrow=open;dashed=1;endSize=8;curved=0;rounded=0;fontSize=9;fontFamily=Lucida Console;labelBackgroundColor=none;" edge="1" parent="aM9ryv3xv72pqoxQDRHE-5">
          <mxGeometry relative="1" as="geometry">
            <mxPoint x="250" y="400" as="sourcePoint" />
            <mxPoint x="55" y="400" as="targetPoint" />
          </mxGeometry>
        </mxCell>
        <mxCell id="7NyGLAVOeVpIGD8T9C1N-5" value="Set block duration&lt;br&gt;in user data" style="html=1;align=left;spacingLeft=2;endArrow=block;rounded=0;edgeStyle=orthogonalEdgeStyle;curved=0;rounded=0;fontFamily=Lucida Console;fontSize=9;fontColor=default;labelBackgroundColor=none;" edge="1" parent="aM9ryv3xv72pqoxQDRHE-5" target="7NyGLAVOeVpIGD8T9C1N-6">
          <mxGeometry relative="1" as="geometry">
            <mxPoint x="55" y="420" as="sourcePoint" />
            <Array as="points">
              <mxPoint x="85" y="450" />
            </Array>
          </mxGeometry>
        </mxCell>
        <mxCell id="7NyGLAVOeVpIGD8T9C1N-7" value="send key: {flag: ACK}" style="html=1;verticalAlign=bottom;endArrow=block;curved=0;rounded=0;fontSize=9;fontFamily=Lucida Console;labelBackgroundColor=none;" edge="1" parent="aM9ryv3xv72pqoxQDRHE-5">
          <mxGeometry width="80" relative="1" as="geometry">
            <mxPoint x="49.5" y="710" as="sourcePoint" />
            <mxPoint x="-149.9000000000001" y="710" as="targetPoint" />
            <Array as="points">
              <mxPoint x="-100" y="710" />
            </Array>
          </mxGeometry>
        </mxCell>
        <mxCell id="7NyGLAVOeVpIGD8T9C1N-8" value="" style="html=1;points=[[0,0,0,0,5],[0,1,0,0,-5],[1,0,0,0,5],[1,1,0,0,-5]];perimeter=orthogonalPerimeter;outlineConnect=0;targetShapes=umlLifeline;portConstraint=eastwest;newEdgeStyle={&quot;curved&quot;:0,&quot;rounded&quot;:0};fontFamily=Lucida Console;fontSize=9;fontColor=default;labelBackgroundColor=none;" vertex="1" parent="aM9ryv3xv72pqoxQDRHE-5">
          <mxGeometry x="45" y="580" width="10" height="140" as="geometry" />
        </mxCell>
        <mxCell id="7NyGLAVOeVpIGD8T9C1N-9" value="agree" style="html=1;verticalAlign=bottom;endArrow=open;dashed=1;endSize=8;curved=0;rounded=0;fontSize=9;fontFamily=Lucida Console;labelBackgroundColor=none;" edge="1" parent="aM9ryv3xv72pqoxQDRHE-5" target="7NyGLAVOeVpIGD8T9C1N-8">
          <mxGeometry relative="1" as="geometry">
            <mxPoint x="250" y="589.76" as="sourcePoint" />
            <mxPoint x="60" y="589.76" as="targetPoint" />
          </mxGeometry>
        </mxCell>
        <mxCell id="7NyGLAVOeVpIGD8T9C1N-10" value="Encrypt(pubKey1, keyPair2)&lt;br style=&quot;font-size: 9px;&quot;&gt;-&amp;gt; {payload, pubKey2, nonce}" style="html=1;align=left;spacingLeft=2;endArrow=block;rounded=0;edgeStyle=orthogonalEdgeStyle;curved=0;rounded=0;fontFamily=Lucida Console;fontSize=9;fontColor=default;labelBackgroundColor=none;" edge="1" parent="aM9ryv3xv72pqoxQDRHE-5" target="7NyGLAVOeVpIGD8T9C1N-11">
          <mxGeometry relative="1" as="geometry">
            <mxPoint x="55" y="660" as="sourcePoint" />
            <Array as="points">
              <mxPoint x="85" y="690" />
            </Array>
          </mxGeometry>
        </mxCell>
        <mxCell id="7NyGLAVOeVpIGD8T9C1N-11" value="" style="html=1;points=[[0,0,0,0,5],[0,1,0,0,-5],[1,0,0,0,5],[1,1,0,0,-5]];perimeter=orthogonalPerimeter;outlineConnect=0;targetShapes=umlLifeline;portConstraint=eastwest;newEdgeStyle={&quot;curved&quot;:0,&quot;rounded&quot;:0};rounded=0;align=center;verticalAlign=middle;fontFamily=Lucida Console;fontSize=9;fontColor=default;fillColor=default;gradientColor=none;labelBackgroundColor=none;" vertex="1" parent="aM9ryv3xv72pqoxQDRHE-5">
          <mxGeometry x="50" y="680" width="10" height="20" as="geometry" />
        </mxCell>
        <mxCell id="7NyGLAVOeVpIGD8T9C1N-12" value="get own keyPair" style="html=1;align=left;spacingLeft=2;endArrow=block;rounded=0;edgeStyle=orthogonalEdgeStyle;curved=0;rounded=0;fontFamily=Lucida Console;fontSize=9;fontColor=default;labelBackgroundColor=none;" edge="1" parent="aM9ryv3xv72pqoxQDRHE-5" target="7NyGLAVOeVpIGD8T9C1N-13">
          <mxGeometry x="-0.0028" relative="1" as="geometry">
            <mxPoint x="55" y="610" as="sourcePoint" />
            <Array as="points">
              <mxPoint x="85" y="640" />
            </Array>
            <mxPoint as="offset" />
          </mxGeometry>
        </mxCell>
        <mxCell id="7NyGLAVOeVpIGD8T9C1N-13" value="" style="html=1;points=[[0,0,0,0,5],[0,1,0,0,-5],[1,0,0,0,5],[1,1,0,0,-5]];perimeter=orthogonalPerimeter;outlineConnect=0;targetShapes=umlLifeline;portConstraint=eastwest;newEdgeStyle={&quot;curved&quot;:0,&quot;rounded&quot;:0};rounded=0;align=center;verticalAlign=middle;fontFamily=Lucida Console;fontSize=9;fontColor=default;fillColor=default;gradientColor=none;labelBackgroundColor=none;" vertex="1" parent="aM9ryv3xv72pqoxQDRHE-5">
          <mxGeometry x="50" y="630" width="10" height="20" as="geometry" />
        </mxCell>
        <mxCell id="7NyGLAVOeVpIGD8T9C1N-18" value="" style="html=1;verticalAlign=bottom;endArrow=none;dashed=1;endSize=8;curved=0;rounded=0;endFill=0;fontSize=9;fontFamily=Lucida Console;labelBackgroundColor=none;" edge="1" parent="aM9ryv3xv72pqoxQDRHE-5">
          <mxGeometry relative="1" as="geometry">
            <mxPoint x="249.5" y="400" as="sourcePoint" />
            <mxPoint x="250" y="400" as="targetPoint" />
          </mxGeometry>
        </mxCell>
        <mxCell id="7NyGLAVOeVpIGD8T9C1N-19" value="" style="html=1;points=[[0,0,0,0,5],[0,1,0,0,-5],[1,0,0,0,5],[1,1,0,0,-5]];perimeter=orthogonalPerimeter;outlineConnect=0;targetShapes=umlLifeline;portConstraint=eastwest;newEdgeStyle={&quot;curved&quot;:0,&quot;rounded&quot;:0};fontFamily=Lucida Console;fontSize=9;fontColor=default;labelBackgroundColor=none;" vertex="1" parent="aM9ryv3xv72pqoxQDRHE-5">
          <mxGeometry x="-155" y="410" width="10" height="70" as="geometry" />
        </mxCell>
        <mxCell id="G5y6H1Q0InbkYZ5HYuAN-60" value="&lt;font style=&quot;font-size: 9px;&quot;&gt;alt&lt;/font&gt;" style="shape=umlFrame;whiteSpace=wrap;html=1;pointerEvents=0;recursiveResize=0;container=1;collapsible=0;width=50;rounded=0;align=center;verticalAlign=middle;fontFamily=Lucida Console;fontSize=9;fontColor=default;fillColor=default;gradientColor=none;height=20;movable=0;resizable=0;rotatable=0;deletable=0;editable=0;locked=1;connectable=0;labelBackgroundColor=none;" parent="aM9ryv3xv72pqoxQDRHE-5" vertex="1">
          <mxGeometry x="-430" y="370" width="710" height="380" as="geometry" />
        </mxCell>
        <mxCell id="G5y6H1Q0InbkYZ5HYuAN-61" value="[disagree]" style="text;html=1;fontFamily=Lucida Console;fontSize=9;fontColor=default;verticalAlign=top;spacing=2;spacingTop=-4;labelBackgroundColor=none;" parent="G5y6H1Q0InbkYZ5HYuAN-60" vertex="1">
          <mxGeometry width="100" height="20" relative="1" as="geometry">
            <mxPoint x="10" y="30" as="offset" />
          </mxGeometry>
        </mxCell>
        <mxCell id="G5y6H1Q0InbkYZ5HYuAN-62" value="[agree]" style="line;strokeWidth=1;dashed=1;labelPosition=center;verticalLabelPosition=bottom;align=left;verticalAlign=middle;spacingLeft=10;spacingTop=-5;html=1;whiteSpace=wrap;rounded=0;fontFamily=Lucida Console;fontSize=9;fontColor=default;fillColor=none;gradientColor=none;movable=1;resizable=1;rotatable=1;deletable=1;editable=1;locked=0;connectable=1;labelBackgroundColor=none;" parent="G5y6H1Q0InbkYZ5HYuAN-60" vertex="1">
          <mxGeometry y="180" width="710" height="20" as="geometry" />
        </mxCell>
        <mxCell id="7NyGLAVOeVpIGD8T9C1N-6" value="" style="html=1;points=[[0,0,0,0,5],[0,1,0,0,-5],[1,0,0,0,5],[1,1,0,0,-5]];perimeter=orthogonalPerimeter;outlineConnect=0;targetShapes=umlLifeline;portConstraint=eastwest;newEdgeStyle={&quot;curved&quot;:0,&quot;rounded&quot;:0};rounded=0;align=center;verticalAlign=middle;fontFamily=Lucida Console;fontSize=9;fontColor=default;fillColor=default;gradientColor=none;labelBackgroundColor=none;" vertex="1" parent="aM9ryv3xv72pqoxQDRHE-5">
          <mxGeometry x="50" y="440" width="10" height="20" as="geometry" />
        </mxCell>
        <mxCell id="G5y6H1Q0InbkYZ5HYuAN-16" value="&lt;font style=&quot;font-size: 9px;&quot;&gt;User 1&lt;/font&gt;" style="shape=umlLifeline;perimeter=lifelinePerimeter;whiteSpace=wrap;html=1;container=1;dropTarget=0;collapsible=0;recursiveResize=0;outlineConnect=0;portConstraint=eastwest;newEdgeStyle={&quot;curved&quot;:0,&quot;rounded&quot;:0};participant=umlActor;&#xa;verticalLabelPosition=top;verticalAlign=top;spacingTop=-25;fontSize=9;fontFamily=Lucida Console;whiteSpace=nowrap;labelBackgroundColor=none;" parent="1" vertex="1">
          <mxGeometry x="150" y="40" width="20" height="740" as="geometry" />
        </mxCell>
        <mxCell id="G5y6H1Q0InbkYZ5HYuAN-50" value="request encryption" style="html=1;verticalAlign=bottom;endArrow=block;curved=0;rounded=0;fontFamily=Lucida Console;fontSize=9;fontColor=default;labelBackgroundColor=none;" parent="1" source="Qm1iwAKYmfylE49Ezy-k-37" target="Qm1iwAKYmfylE49Ezy-k-1" edge="1">
          <mxGeometry width="80" relative="1" as="geometry">
            <mxPoint x="159.92857142857133" y="120" as="sourcePoint" />
            <mxPoint x="320" y="120" as="targetPoint" />
          </mxGeometry>
        </mxCell>
        <mxCell id="G5y6H1Q0InbkYZ5HYuAN-51" value="&lt;font style=&quot;font-size: 9px;&quot;&gt;Enquiry:&lt;br style=&quot;font-size: 9px;&quot;&gt;{flag: ENQ, pubKey1}&lt;/font&gt;" style="html=1;verticalAlign=bottom;endArrow=block;curved=0;rounded=0;fontFamily=Lucida Console;fontSize=9;fontColor=default;labelBackgroundColor=none;" parent="1" edge="1">
          <mxGeometry x="0.0045" width="80" relative="1" as="geometry">
            <mxPoint x="365" y="200" as="sourcePoint" />
            <mxPoint x="555" y="200" as="targetPoint" />
            <mxPoint as="offset" />
          </mxGeometry>
        </mxCell>
        <mxCell id="G5y6H1Q0InbkYZ5HYuAN-28" value="User 2" style="shape=umlLifeline;perimeter=lifelinePerimeter;whiteSpace=wrap;html=1;container=1;dropTarget=0;collapsible=0;recursiveResize=0;outlineConnect=0;portConstraint=eastwest;newEdgeStyle={&quot;curved&quot;:0,&quot;rounded&quot;:0};participant=umlActor;&#xa;verticalLabelPosition=top;verticalAlign=top;spacingTop=-25;fontSize=9;fontFamily=Lucida Console;whiteSpace=nowrap;labelBackgroundColor=none;" parent="1" vertex="1">
          <mxGeometry x="750" y="40" width="20" height="740" as="geometry" />
        </mxCell>
        <mxCell id="Qm1iwAKYmfylE49Ezy-k-32" value="" style="html=1;points=[[0,0,0,0,5],[0,1,0,0,-5],[1,0,0,0,5],[1,1,0,0,-5]];perimeter=orthogonalPerimeter;outlineConnect=0;targetShapes=umlLifeline;portConstraint=eastwest;newEdgeStyle={&quot;curved&quot;:0,&quot;rounded&quot;:0};fontFamily=Lucida Console;fontSize=9;fontColor=default;labelBackgroundColor=none;" parent="G5y6H1Q0InbkYZ5HYuAN-28" vertex="1">
          <mxGeometry x="5" y="310" width="10" height="290" as="geometry" />
        </mxCell>
        <mxCell id="Qm1iwAKYmfylE49Ezy-k-38" value="" style="html=1;verticalAlign=bottom;endArrow=block;curved=0;rounded=0;fontFamily=Lucida Console;fontSize=9;fontColor=default;labelBackgroundColor=none;" parent="1" target="Qm1iwAKYmfylE49Ezy-k-37" edge="1">
          <mxGeometry width="80" relative="1" as="geometry">
            <mxPoint x="159.92857142857133" y="120" as="sourcePoint" />
            <mxPoint x="359.5" y="120" as="targetPoint" />
          </mxGeometry>
        </mxCell>
        <mxCell id="Qm1iwAKYmfylE49Ezy-k-37" value="" style="html=1;points=[[0,0,0,0,5],[0,1,0,0,-5],[1,0,0,0,5],[1,1,0,0,-5]];perimeter=orthogonalPerimeter;outlineConnect=0;targetShapes=umlLifeline;portConstraint=eastwest;newEdgeStyle={&quot;curved&quot;:0,&quot;rounded&quot;:0};fontFamily=Lucida Console;fontSize=9;fontColor=default;labelBackgroundColor=none;" parent="1" vertex="1">
          <mxGeometry x="155" y="110" width="10" height="20" as="geometry" />
        </mxCell>
        <mxCell id="7NyGLAVOeVpIGD8T9C1N-22" value="&lt;font style=&quot;font-size: 9px;&quot;&gt;alt&lt;/font&gt;" style="shape=umlFrame;whiteSpace=wrap;html=1;pointerEvents=0;recursiveResize=0;container=1;collapsible=0;width=50;rounded=0;align=center;verticalAlign=middle;fontFamily=Lucida Console;fontSize=9;fontColor=default;fillColor=default;gradientColor=none;height=20;movable=0;resizable=0;rotatable=0;deletable=0;editable=0;locked=1;connectable=0;labelBackgroundColor=none;" vertex="1" parent="1">
          <mxGeometry x="80" y="270" width="710" height="130" as="geometry" />
        </mxCell>
        <mxCell id="7NyGLAVOeVpIGD8T9C1N-23" value="[blocked]" style="text;html=1;fontFamily=Lucida Console;fontSize=9;fontColor=default;verticalAlign=top;spacing=2;spacingTop=-4;labelBackgroundColor=none;" vertex="1" parent="7NyGLAVOeVpIGD8T9C1N-22">
          <mxGeometry width="100" height="20" relative="1" as="geometry">
            <mxPoint x="10" y="30" as="offset" />
          </mxGeometry>
        </mxCell>
        <mxCell id="7NyGLAVOeVpIGD8T9C1N-24" value="[not blocked]" style="line;strokeWidth=1;dashed=1;labelPosition=center;verticalLabelPosition=bottom;align=left;verticalAlign=middle;spacingLeft=10;spacingTop=-5;html=1;whiteSpace=wrap;rounded=0;fontFamily=Lucida Console;fontSize=9;fontColor=default;fillColor=none;gradientColor=none;movable=1;resizable=1;rotatable=1;deletable=1;editable=1;locked=0;connectable=1;labelBackgroundColor=none;" vertex="1" parent="7NyGLAVOeVpIGD8T9C1N-22">
          <mxGeometry y="60" width="710" height="20" as="geometry" />
        </mxCell>
        <mxCell id="7NyGLAVOeVpIGD8T9C1N-16" value="canceled" style="html=1;verticalAlign=bottom;endArrow=open;curved=0;rounded=0;endFill=0;endSize=8;fontSize=9;fontFamily=Lucida Console;labelBackgroundColor=none;" edge="1" parent="1">
          <mxGeometry width="80" relative="1" as="geometry">
            <mxPoint x="355" y="510" as="sourcePoint" />
            <mxPoint x="165" y="510" as="targetPoint" />
            <Array as="points">
              <mxPoint x="220.07" y="510" />
            </Array>
          </mxGeometry>
        </mxCell>
        <mxCell id="7NyGLAVOeVpIGD8T9C1N-4" value="" style="html=1;points=[[0,0,0,0,5],[0,1,0,0,-5],[1,0,0,0,5],[1,1,0,0,-5]];perimeter=orthogonalPerimeter;outlineConnect=0;targetShapes=umlLifeline;portConstraint=eastwest;newEdgeStyle={&quot;curved&quot;:0,&quot;rounded&quot;:0};fontFamily=Lucida Console;fontSize=9;fontColor=default;labelBackgroundColor=none;" vertex="1" parent="1">
          <mxGeometry x="155" y="500" width="10" height="20" as="geometry" />
        </mxCell>
        <mxCell id="7NyGLAVOeVpIGD8T9C1N-15" value="Acknowledge: {flag: ACK}" style="html=1;verticalAlign=bottom;endArrow=open;dashed=1;endSize=8;curved=0;rounded=0;fontSize=9;fontFamily=Lucida Console;labelBackgroundColor=none;" edge="1" parent="1">
          <mxGeometry relative="1" as="geometry">
            <mxPoint x="365" y="510" as="sourcePoint" />
            <mxPoint x="555" y="510" as="targetPoint" />
          </mxGeometry>
        </mxCell>
        <mxCell id="7NyGLAVOeVpIGD8T9C1N-31" value="agree to encryption?" style="html=1;verticalAlign=bottom;endArrow=block;curved=0;rounded=0;fontFamily=Lucida Console;fontSize=9;fontColor=default;labelBackgroundColor=none;" edge="1" parent="1">
          <mxGeometry width="80" relative="1" as="geometry">
            <mxPoint x="570" y="370" as="sourcePoint" />
            <mxPoint x="760" y="370" as="targetPoint" />
          </mxGeometry>
        </mxCell>
        <mxCell id="7NyGLAVOeVpIGD8T9C1N-32" value="declined: {flag: NAK}" style="html=1;verticalAlign=bottom;endArrow=block;curved=0;rounded=0;fontSize=9;fontFamily=Lucida Console;labelBackgroundColor=none;" edge="1" parent="1" target="7NyGLAVOeVpIGD8T9C1N-36">
          <mxGeometry width="80" relative="1" as="geometry">
            <mxPoint x="559.4" y="300" as="sourcePoint" />
            <mxPoint x="370" y="300" as="targetPoint" />
            <Array as="points">
              <mxPoint x="409.9" y="300" />
            </Array>
          </mxGeometry>
        </mxCell>
        <mxCell id="7NyGLAVOeVpIGD8T9C1N-34" value="canceled" style="html=1;verticalAlign=bottom;endArrow=open;curved=0;rounded=0;endFill=0;endSize=8;fontSize=9;fontFamily=Lucida Console;labelBackgroundColor=none;" edge="1" parent="1" source="aM9ryv3xv72pqoxQDRHE-1">
          <mxGeometry width="80" relative="1" as="geometry">
            <mxPoint x="345" y="320" as="sourcePoint" />
            <mxPoint x="165" y="320" as="targetPoint" />
            <Array as="points">
              <mxPoint x="220.07" y="320" />
            </Array>
          </mxGeometry>
        </mxCell>
        <mxCell id="7NyGLAVOeVpIGD8T9C1N-35" value="" style="html=1;points=[[0,0,0,0,5],[0,1,0,0,-5],[1,0,0,0,5],[1,1,0,0,-5]];perimeter=orthogonalPerimeter;outlineConnect=0;targetShapes=umlLifeline;portConstraint=eastwest;newEdgeStyle={&quot;curved&quot;:0,&quot;rounded&quot;:0};fontFamily=Lucida Console;fontSize=9;fontColor=default;labelBackgroundColor=none;" vertex="1" parent="1">
          <mxGeometry x="155" y="310" width="10" height="20" as="geometry" />
        </mxCell>
        <mxCell id="7NyGLAVOeVpIGD8T9C1N-36" value="" style="html=1;points=[[0,0,0,0,5],[0,1,0,0,-5],[1,0,0,0,5],[1,1,0,0,-5]];perimeter=orthogonalPerimeter;outlineConnect=0;targetShapes=umlLifeline;portConstraint=eastwest;newEdgeStyle={&quot;curved&quot;:0,&quot;rounded&quot;:0};rounded=0;align=center;verticalAlign=middle;fontFamily=Lucida Console;fontSize=9;fontColor=default;fillColor=default;gradientColor=none;labelBackgroundColor=none;" vertex="1" parent="1">
          <mxGeometry x="355" y="290" width="10" height="40" as="geometry" />
        </mxCell>
      </root>
    </mxGraphModel>
  </diagram>
</mxfile>
